<?xml version="1.0" encoding="UTF-8" standalone="no"?>
<svg
   xmlns:dc="http://purl.org/dc/elements/1.1/"
   xmlns:cc="http://creativecommons.org/ns#"
   xmlns:rdf="http://www.w3.org/1999/02/22-rdf-syntax-ns#"
   xmlns:svg="http://www.w3.org/2000/svg"
   xmlns="http://www.w3.org/2000/svg"
   xmlns:sodipodi="http://sodipodi.sourceforge.net/DTD/sodipodi-0.dtd"
   xmlns:inkscape="http://www.inkscape.org/namespaces/inkscape"
   version="1.0"
   width="16.000000pt"
   height="16.000000pt"
   viewBox="0 0 16.000000 16.000000"
   preserveAspectRatio="xMidYMid meet"
   id="svg8"
   sodipodi:docname="safari-pinned-tab.svg"
   inkscape:version="0.92.4 (5da689c313, 2019-01-14)">
  <defs
     id="defs12" />
  <sodipodi:namedview
     pagecolor="#ffffff"
     bordercolor="#666666"
     borderopacity="1"
     objecttolerance="10"
     gridtolerance="10"
     guidetolerance="10"
     inkscape:pageopacity="0"
     inkscape:pageshadow="2"
     inkscape:window-width="3458"
     inkscape:window-height="1848"
     id="namedview10"
     showgrid="false"
     inkscape:zoom="48.6148"
     inkscape:cx="9.8054861"
     inkscape:cy="10.487567"
     inkscape:window-x="0"
     inkscape:window-y="0"
     inkscape:window-maximized="0"
     inkscape:current-layer="svg8" />
  <metadata
     id="metadata2">
Created by potrace 1.11, written by Peter Selinger 2001-2013
<rdf:RDF>
  <cc:Work
     rdf:about="">
    <dc:format>image/svg+xml</dc:format>
    <dc:type
       rdf:resource="http://purl.org/dc/dcmitype/StillImage" />
  </cc:Work>
</rdf:RDF>
</metadata>
  <path
     style="stroke-width:0.04086783"
     d="M 11.888672 1.0644531 L 6.4003906 2.1210938 L 8.3613281 3.3867188 L 8.0234375 5.1269531 L 12.775391 5.1269531 A 1.8439565 1.8439565 0 0 1 14.080078 5.6679688 L 14.285156 4.6132812 L 14.90625 4.4941406 L 14.986328 6.9492188 C 14.884981 6.9958081 14.82054 7.0731082 14.824219 7.1601562 A 0.19616558 0.19616558 0 0 0 14.90625 7.3046875 C 14.852717 7.4918622 14.719886 7.9540852 14.720703 7.9765625 C 14.725236 8.1195998 15.723655 8.0863967 15.71875 7.9433594 C 15.71875 7.9204727 15.555214 7.4701972 15.490234 7.2871094 A 0.19698293 0.19698293 0 0 0 15.5625 7.1347656 C 15.5597 7.0489443 15.488975 6.9771417 15.384766 6.9375 L 15.304688 4.4179688 L 16.669922 4.1542969 L 11.888672 1.0644531 z M 6.6210938 5.4394531 A 1.6396172 1.6396172 0 0 0 4.9863281 7.0742188 L 4.9863281 10.802734 A 1.6396172 1.6396172 0 0 0 6.6210938 12.4375 L 12.617188 12.4375 A 1.6396172 1.6396172 0 0 0 14.251953 10.802734 L 14.251953 7.0742188 A 1.6396172 1.6396172 0 0 0 12.617188 5.4394531 L 6.6210938 5.4394531 z M 6.1289062 6.59375 L 13.109375 6.59375 L 13.109375 11.285156 L 6.1289062 11.285156 L 6.1289062 6.59375 z M 6.8984375 7.3867188 L 6.8984375 9.7128906 L 8.4550781 9.7128906 L 8.4550781 7.3867188 L 6.8984375 7.3867188 z M 10.763672 7.3867188 L 10.763672 9.7128906 L 12.320312 9.7128906 L 12.320312 7.3867188 L 10.763672 7.3867188 z M 7.2929688 8.5585938 L 8.0625 8.5585938 L 8.0625 9.328125 L 7.2929688 9.328125 L 7.2929688 8.5585938 z M 11.15625 8.5585938 L 11.925781 8.5585938 L 11.925781 9.328125 L 11.15625 9.328125 L 11.15625 8.5585938 z M 16.195312 8.5585938 L 16.195312 9.7324219 L 15.800781 9.7324219 L 15.800781 12.097656 A 0.3085521 0.3085521 0 0 0 16.107422 12.404297 L 16.587891 12.404297 L 16.587891 12.857422 A 0.35595878 0.35595878 0 0 0 16.943359 13.212891 L 16.962891 13.212891 L 16.962891 18.941406 C 16.962891 19.381961 16.454516 19.394531 16.396484 19.394531 C 16.338458 19.394531 15.830078 19.381964 15.830078 18.941406 L 15.830078 14.519531 C 15.830078 13.72833 15.380008 13.215072 14.621094 13.21875 C 14.029736 13.222017 12.870916 13.21875 12.724609 13.21875 L 12.724609 12.75 L 6.4941406 12.75 L 6.4941406 18.654297 L 4.9960938 18.654297 L 4.9960938 20.152344 L 14.261719 20.152344 L 14.261719 18.654297 L 12.724609 18.654297 L 12.724609 14.005859 C 12.864786 14.005859 14.035814 14.009193 14.595703 14.005859 C 14.877691 14.005859 15.041016 14.101858 15.041016 14.519531 L 15.041016 18.941406 A 1.1745414 1.1745414 0 0 0 15.492188 19.888672 A 1.5305002 1.5305002 0 0 0 17.300781 19.888672 A 1.1753587 1.1753587 0 0 0 17.75 18.941406 L 17.75 13.212891 L 17.771484 13.212891 A 0.35595878 0.35595878 0 0 0 18.125 12.857422 L 18.125 12.404297 L 18.605469 12.404297 A 0.3085521 0.3085521 0 0 0 18.914062 12.097656 L 18.914062 9.7324219 L 18.521484 9.7324219 L 18.521484 8.5585938 L 17.751953 8.5585938 L 17.751953 9.7324219 L 16.962891 9.7324219 L 16.962891 8.5585938 L 16.195312 8.5585938 z M 9.9746094 13.785156 L 9.8203125 15.726562 L 10.783203 15.726562 L 9.4179688 17.994141 L 9.609375 16.111328 L 8.4550781 16.111328 L 9.9746094 13.785156 z "
     transform="scale(0.74999998)"
     id="path4539" />
</svg>
